<svg width="24" height="24" viewBox="0 0 24 24" fill="none" xmlns="http://www.w3.org/2000/svg">
  <path d="M9.26919 2.66669C11.0205 2.66669 12.7 3.36238 13.9383 4.60071C15.1767 5.83905 15.8724 7.51859 15.8724 9.26986C15.8724 10.9054 15.273 12.4089 14.2876 13.567L14.5619 13.8413H15.3644L20.4438 18.9207L18.92 20.4445L13.8406 15.3651V14.5626L13.5663 14.2883C12.3682 15.311 10.8445 15.8729 9.26919 15.873C7.51792 15.873 5.83838 15.1773 4.60004 13.939C3.36171 12.7007 2.66602 11.0211 2.66602 9.26986C2.66602 7.51859 3.36171 5.83905 4.60004 4.60071C5.83838 3.36238 7.51792 2.66669 9.26919 2.66669ZM9.26919 4.69843C6.72951 4.69843 4.69776 6.73018 4.69776 9.26986C4.69776 11.8095 6.72951 13.8413 9.26919 13.8413C11.8089 13.8413 13.8406 11.8095 13.8406 9.26986C13.8406 6.73018 11.8089 4.69843 9.26919 4.69843Z" fill="white" />
</svg>
