<svg width="14" height="15" viewBox="0 0 14 15" fill="none" xmlns="http://www.w3.org/2000/svg">
  <path fill-rule="evenodd" clip-rule="evenodd" d="M8.99292 0.740461C9.44431 0.524773 10.0181 0.774057 10.1938 1.24285C10.4181 1.84102 10.7856 2.59531 11.346 3.15638C11.9064 3.71745 12.6599 4.0853 13.2574 4.30983C13.7257 4.4858 13.9747 5.06019 13.7592 5.51209C13.4688 6.12118 13.1542 6.91606 13.1542 7.50095C13.1542 8.11397 13.4998 8.95764 13.8009 9.57633C14.0075 10.0009 13.8026 10.5381 13.3705 10.7276C12.7575 10.9964 11.9424 11.4294 11.346 12.0265C10.8041 12.5691 10.4426 13.2471 10.2166 13.7898C10.0266 14.246 9.45876 14.4851 9.01364 14.2714C8.40263 13.9779 7.59718 13.6558 7.00629 13.6558C6.39574 13.6558 5.5564 13.9996 4.93898 14.3003C4.51303 14.5078 3.95664 14.3052 3.74932 13.8788C3.47889 13.3226 3.0577 12.5991 2.48575 12.0265C1.90295 11.4431 1.16361 11.0163 0.604087 10.7463C0.187273 10.5451 -0.00464237 10.0183 0.199004 9.60229C0.502977 8.98141 0.858362 8.12259 0.858362 7.50095C0.858362 6.90939 0.536537 6.10305 0.243445 5.49135C0.0299269 5.04573 0.268763 4.47729 0.724422 4.28708C1.26661 4.06075 1.94385 3.69889 2.48575 3.15638C3.0822 2.55927 3.5147 1.74331 3.78324 1.12959C3.97253 0.697014 4.50914 0.491889 4.93323 0.698733C5.55123 1.00016 6.39396 1.34614 7.00629 1.34614C7.59053 1.34614 8.38451 1.03117 8.99292 0.740461ZM10.0944 5.11731C9.89601 4.91052 9.57436 4.91052 9.37598 5.11731L5.92161 8.72559L4.60082 7.34883C4.40243 7.14204 4.08079 7.14204 3.8824 7.34883C3.68402 7.55562 3.68402 7.8909 3.8824 8.09769L5.60237 9.89054C5.70878 9.99644 5.98257 10.1447 6.2264 9.89054L10.0944 5.85864C10.2928 5.65185 10.2928 5.3241 10.0944 5.11731Z" fill="#4B91CA" />
</svg>